<?xml version="1.0" encoding="UTF-8"?>
<svg id="base_map" data-name="base map" xmlns="http://www.w3.org/2000/svg" viewBox="0 0 1920 1080">
  <g id="parking_map" data-name="parking map">
    <path d="M1305.3,675.91l-25.79,61.99c.1,3.53-.01,21.53-11.33,44.84-11.34,23.35-36.66,56.65-92.81,82.62-65.72,30.4-121.64,32.15-149.59,4.69-12.13-11.93-17.25-28.2-14.92-45.73l-.62-.26,1.05-2.51c1-5.69,2.77-11.49,5.33-17.31l60.06-141.13,160.42,65.61,1.99-4.67-164.34-68.02,16.48-39.62c-5.05-3.89-22.65-16.34-37.71-13.4-6.33,1.24-11.55,5.15-15.54,11.64l43.31,18.01-90.89,218.5-47.25-19.65-20.3,49.96c-2.89,7.1-8.37,12.64-15.44,15.59-3.55,1.48-7.28,2.22-11,2.22s-7.41-.73-10.94-2.19l-263.46-109.31c-3.09-.48-20.52-4.68-29.85-39.07-7.93-29.21-108.58-276.16-139.23-351.14-8.44-20.64,1.47-44.35,22.09-52.84l.82-.32-17.72-42.98,112.73-46.46,18.54,44.98c5.61-.6,21.72-1.52,32.03,6.2,4.11,3.08,6.82,7.15,8.1,12.14l45.8-18.88,46.1,111.87-46.43,19.14c1.22,3.96,4.57,12.68,11.04,15.95,3.57,1.81,7.57,1.7,12.22-.34,19.86-8.72,37.17-17.55,38.57-18.28.74-.47,8.58-6.03,3-20.53-5.23-13.58-51.65-126.7-69.12-169.29l4.62-1.9c27.44,66.87,64.46,157.18,69.16,169.39,7.31,18.98-5.02,26.58-5.14,26.66l-.14.07c-.18.1-18.17,9.34-38.95,18.46-6.02,2.64-11.57,2.72-16.5.22-10.55-5.36-14.06-20.69-14.2-21.34l-.46-2.05,45.81-18.88-6.41-15.54-39.22,16.17.37.9-4.57,1.88-1.89-4.57,4.58-1.89.37.9,39.22-16.16-7.83-18.99-39.22,16.16.37.9-4.58,1.89-1.88-4.58,4.58-1.88.37.9,39.22-16.17-7.83-18.99-39.22,16.17.37.9-4.58,1.89-1.88-4.58,4.58-1.89.37.91,39.22-16.17-7.83-18.99-39.22,16.17.37.9-4.58,1.88-1.88-4.57,4.58-1.89.37.9,39.22-16.16-7.84-19.03-47.02,19.4-.42-3.24c-.66-5.13-2.86-9.03-6.73-11.93-10.67-8-30.03-5.05-30.23-5.02l-1.95.31-18.12-43.96-16.83,6.94,15.59,37.81.9-.37,1.89,4.58-4.58,1.89-1.89-4.58.9-.37-15.58-37.82-18.99,7.83,15.58,37.81.91-.37,1.88,4.58-4.57,1.89-1.89-4.58.9-.37-15.58-37.82-18.99,7.83,15.58,37.82.9-.38,1.89,4.58-4.58,1.89-1.88-4.58.9-.37-15.59-37.82-18.99,7.83,15.59,37.82.9-.38,1.89,4.58-4.58,1.89-1.89-4.58.9-.37-15.58-37.82-18.6,7.67,17.77,43.08-5.54,2.14c-18.02,7.43-26.71,28.21-19.32,46.3,39.33,96.2,131.64,323.04,139.43,351.73,9.04,33.31,25.75,35.43,25.91,35.45l.37.04.36.14,263.77,109.44c5.83,2.42,12.26,2.41,18.09-.02,5.83-2.44,10.35-7.01,12.73-12.86l22.2-54.64,47.29,19.67,7.31-17.57-38.01-15.81-.37.9-4.58-1.9,1.9-4.57,4.58,1.9-.38.9,38.01,15.81,7.75-18.62-38.01-15.81-.38.9-4.57-1.9,1.9-4.57,4.57,1.9-.37.9,38.01,15.81,7.74-18.62-38.01-15.8-.37.9-4.58-1.91,1.91-4.57,4.57,1.9-.38.91,38.02,15.81,7.74-18.62-38.01-15.81-.38.9-4.57-1.9,1.9-4.58,4.57,1.91-.37.9,38.01,15.81,7.75-18.62-38.02-15.81-.37.9-4.57-1.9,1.9-4.57,4.57,1.9-.38.9,38.02,15.81,7.75-18.62-38.02-15.81-.38.9-4.57-1.9,1.9-4.57,4.57,1.9-.37.9,38.02,15.81,7.74-18.62-38.02-15.81-.37.9-4.57-1.9,1.9-4.57,4.57,1.9-.38.9,38.02,15.81,7.75-18.62-38.02-15.81-.38.9-4.57-1.9,1.9-4.57,4.57,1.9-.37.9,38.02,15.82,7.75-18.62-38.03-15.82-.37.9-4.57-1.9,1.9-4.57,4.57,1.9-.38.9,38.03,15.82,7.41-17.82-43.82-18.23,1.26-2.42c4.88-9.34,11.74-14.92,20.38-16.61,20.07-3.9,42.37,14.83,43.31,15.63l1.39,1.18-15.98,38.42,23.34,9.66,15.65-37.64-.9-.38,1.9-4.57,4.58,1.9-1.91,4.57-.9-.37-15.65,37.63,18.96,7.85,15.64-37.6-.9-.37,1.9-4.58,4.58,1.91-1.91,4.57-.9-.38-15.63,37.6,18.96,7.85,15.62-37.57-.9-.37,1.9-4.57,4.58,1.9-1.91,4.57-.9-.37-15.62,37.56,18.96,7.85,15.61-37.53-.9-.38,1.9-4.57,4.57,1.9-1.9,4.57-.9-.37-15.6,37.52,18.96,7.85,15.59-37.49-.9-.37,1.9-4.58,4.57,1.9-1.9,4.58-.9-.38-15.59,37.49,18.97,7.85,15.57-37.46-.9-.37,1.9-4.57,4.57,1.9-1.9,4.57-.9-.38-15.57,37.45,18.96,7.85,15.56-37.41-.9-.38,1.9-4.57,4.57,1.9-1.9,4.57-.9-.37-15.56,37.41,7.86,3.25-5.9,13.85-3.91-1.6-14.88,36.79.9.36-1.86,4.59-4.59-1.85,1.86-4.59.91.36,14.88-36.79-19-7.77-14.91,36.87.9.36-1.85,4.59-4.59-1.85,1.85-4.59.91.36,14.92-36.88-19-7.77-14.95,36.96.91.36-1.86,4.59-4.59-1.85,1.86-4.59.9.36,14.95-36.96-18.99-7.77-14.98,37.04.9.36-1.86,4.59-4.59-1.85,1.86-4.59.9.36,14.99-37.05-19-7.77-15.01,37.13.9.36-1.85,4.59-4.59-1.85,1.85-4.59.91.36,15.02-37.13-19-7.77-15.05,37.21.91.36-1.86,4.59-4.59-1.85,1.86-4.59.9.36,15.05-37.22-44.86-18.34-19,44.66,36.1,15.02.37-.9,4.58,1.9-1.91,4.57-4.57-1.9.38-.9-36.13-15.03-8.04,18.89,36.29,15.09.37-.9,4.57,1.9-1.9,4.57-4.57-1.9.37-.9-36.3-15.1-8.04,18.88,36.46,15.17.38-.91,4.57,1.91-1.9,4.57-4.57-1.9.37-.9-36.48-15.18-8.04,18.89,36.64,15.24.37-.91,4.58,1.91-1.9,4.57-4.58-1.9.38-.91-36.66-15.24-8.04,18.88,36.82,15.32.37-.91,4.57,1.91-1.9,4.57-4.57-1.9.38-.91-36.85-15.32-1.11,2.62c-2.53,5.73-4.23,11.44-5.13,17.01l35.2,14.64.38-.9,4.57,1.91-1.9,4.57-4.57-1.9.37-.91-34.46-14.33c-1.67,15.47,2.98,29.7,13.62,40.16,15.52,15.25,43.58,20.36,74.5,16.36,6.56-.97,13.38-2.35,20.43-4.16l-15.03-37.79-.91.36-1.83-4.6,4.6-1.83,1.83,4.6-.91.36,15.17,38.13c6.37-1.72,12.92-3.8,19.62-6.2l-15.72-39.51-.9.36-1.83-4.6,4.6-1.83,1.83,4.6-.91.36,15.76,39.61c6.21-2.3,12.55-4.89,19-7.76l-15.69-39.44-.9.36-1.83-4.6,4.6-1.83,1.83,4.6-.91.36,15.63,39.31c.66-.29,1.3-.57,1.95-.88,5.84-2.7,13.96-6.94,19.13-9.77,6.4-3.61,14.8-9.08,20.22-12.82,28.06-20.01,43-41.19,50.92-57.38,11.92-24.38,10.97-43.06,10.96-43.25l-.04-.57.22-.54,25.98-62.44,12.42-34.38-233.28-94.12c-.21-.1-20.96-10.11-5.83-43.89,14.1-31.48,38.5-98.06,38.74-98.73.08-.19,5.55-14.83-2.81-27.84-8.93-13.89-40.43-44.69-40.75-45l-.08-.09c-.18-.19-17.38-18.48-34.21-15.39l-1.99.36-16.8-40.76-17.95,7.4,15.86,38.47.9-.38,1.89,4.58-4.58,1.89-1.89-4.58.9-.37-15.85-38.47-18.99,7.83,15.85,38.47.91-.38,1.88,4.58-4.57,1.89-1.89-4.58.9-.37-15.85-38.47-18.99,7.83,15.85,38.47.9-.38,1.89,4.58-4.58,1.89-1.88-4.58.9-.37-15.86-38.47-18.99,7.83,15.86,38.47.9-.37,1.89,4.57-4.58,1.89-1.89-4.58.9-.37-15.85-38.47-18.99,7.83,15.86,38.47.9-.37,1.88,4.57-4.57,1.89-1.89-4.58.9-.37-15.85-38.47-18.99,7.83,15.85,38.47.9-.37,1.89,4.57-4.58,1.89-1.88-4.58.9-.37-15.86-38.47-18.99,7.83,15.86,38.47.9-.37,1.89,4.57-4.58,1.89-1.89-4.58.9-.37-15.85-38.47-18.99,7.83,15.86,38.47.9-.37,1.88,4.57-4.57,1.89-1.89-4.58.9-.37-15.85-38.47-18.19,7.5,18.35,44.51-2.6.82c-.36.12-36.32,10.87-53.98-35.74-13.07-34.5-21.98-57.48-25.2-65.75l2.05-.8-2.05.79c-1.54-3.96-2.35-6.04-2.36-6.04l4.66-1.84s.21.52.6,1.54c.4,1.03.99,2.55,1.76,4.54,3.23,8.29,12.14,31.28,25.22,65.78,13.39,35.34,37.1,34.71,45.11,33.36l-18.08-43.89,200.49-82.63,17.19,41.71c18.5-1.91,35.49,15.85,36.71,17.15,1.83,1.79,32.26,31.61,41.41,45.84,9.77,15.19,3.56,31.61,3.29,32.31-.23.62-24.69,67.37-38.86,99-12.79,28.56,2.17,36.71,3.33,37.29l237.56,95.84-14.12,39.08Z"/>
    <path d="M593.31,390.44l-1.93-2.58c-7.2-9.61-18.69-15.35-30.73-15.35-5,0-9.92.98-14.62,2.91-9.49,3.91-16.88,11.28-20.83,20.76-3.94,9.47-3.96,19.91-.05,29.4l19.74,47.89c5.95,14.45,19.9,23.79,35.53,23.79,5,0,9.92-.98,14.62-2.91,16.77-6.92,26.49-24.85,23.11-42.66l-.57-3.01-37.78,15.57-6.79-16.47,39.15-16.14.37.9,4.58-1.89-1.89-4.58-4.58,1.89.37.9-39.15,16.14-7.83-18.99,39.15-16.14.37.9,4.58-1.89-1.89-4.58-4.58,1.89.37.9-39.15,16.14-7.14-17.31,37.54-15.48Z"/>
    <path d="M741.28,489.99l-2.21.99,16.96,41.15-18.26,7.52-15.52-37.65.9-.37-1.89-4.58-4.58,1.89,1.89,4.58.9-.37,15.52,37.65-18.99,7.83-15.52-37.65.9-.37-1.89-4.58-4.58,1.89,1.89,4.58.9-.37,15.52,37.65-18.99,7.83-15.52-37.65.9-.37-1.89-4.58-4.58,1.89,1.89,4.58.9-.37,15.52,37.65-18.99,7.83-15.52-37.65.9-.37-1.89-4.58-4.58,1.89,1.89,4.58.9-.37,15.52,37.65-18.19,7.5-17.18-41.7-20.67,8.79c-20.14,8.57-29.73,32-21.39,52.22l.95,2.31,43.38-17.88,7.55,18.31-38,15.66-.37-.9-4.58,1.89,1.89,4.58,4.58-1.89-.37-.9,38-15.66,7.83,18.99-38,15.66-.37-.9-4.58,1.89,1.89,4.58,4.58-1.89-.37-.9,38-15.66,7.83,18.99-38.01,15.66-.37-.9-4.58,1.89,1.89,4.58,4.58-1.89-.37-.9,38.01-15.66,7.83,18.99-38.01,15.66-.37-.9-4.58,1.89,1.89,4.58,4.58-1.89-.37-.9,38.01-15.66,7.83,18.99-38.01,15.67-.37-.9-4.58,1.89,1.89,4.58,4.58-1.89-.37-.9,38.01-15.67,7.6,18.44-45.32,18.68,1.95,2.58c.4.54,10.1,13.23,26.8,22.12,8.37,4.46,19.38,8.34,32.33,8.34,11.09,0,23.6-2.85,37.09-10.63l4.38-2.53-51.92-21.6,7.3-17.55,39.43,16.4-.37.9,4.57,1.9,1.9-4.57-4.57-1.9-.37.9-39.43-16.4,7.74-18.62,39.43,16.4-.37.9,4.57,1.9,1.9-4.57-4.57-1.9-.37.9-39.43-16.4,7.75-18.62,39.42,16.4-.37.9,4.57,1.9,1.9-4.57-4.57-1.9-.37.9-39.42-16.4,7.74-18.62,39.42,16.4-.37.9,4.57,1.9,1.9-4.57-4.57-1.9-.37.9-39.42-16.4,7.74-18.62,39.42,16.4-.37.9,4.57,1.9,1.9-4.57-4.57-1.9-.37.9-39.42-16.4,7.74-18.62,39.42,16.39-.37.9,4.57,1.9,1.9-4.57-4.57-1.9-.37.9-39.42-16.39,7.74-18.62,39.42,16.39-.37.9,4.57,1.9,1.9-4.57-4.57-1.9-.37.9-39.42-16.39,7.74-18.62,39.42,16.39-.37.9,4.57,1.9,1.9-4.57-4.57-1.9-.37.9-39.42-16.39,7.74-18.62,39.41,16.39-.37.9,4.57,1.9,1.9-4.57-4.57-1.9-.37.9-39.41-16.39,7.42-17.84,45.09,18.75,2.22.03.68-1.57c1.02-2.34-1.65-23.76-15.72-37.66-11.16-11.02-32.73-20.45-72.13-2.79Z"/>
    <path d="M934.91,458.4l-17.5-42.46-2.63,2.32c-11.69,10.33-17.33,20.76-16.79,30.98.69,12.97,11.15,20.53,11.6,20.84l.44.25c.42.18,41.92,18.53,71.38,31,6.49,2.75,12.38,3.84,17.64,3.84,20.12,0,31.01-15.96,31.15-16.17l1.68-2.53-46.22-19.22,8.19-19.68,37.69,15.67-.37.9,4.57,1.9,1.9-4.57-4.57-1.9-.37.9-37.69-15.67,6.91-16.6,37.59,15.63-.37.9,4.57,1.9,1.9-4.57-4.57-1.9-.37.9-37.59-15.63,7.64-18.36,46.23,19.22.76-2.72c4.05-14.43,2.64-25.98-4.18-34.32-12.92-15.81-40.33-13.99-41.5-13.9l-.38.03-55.71,21.93,18.49,44.84-17.29,7.12-16.09-39.05.9-.37-1.89-4.58-4.58,1.89,1.89,4.58.9-.37,16.09,39.05-19.41,8Z"/>
    <path d="M829.87,653.71l-1.9,4.57,4.57,1.9.37-.9,39.65,16.49-7.74,18.62-39.65-16.49.37-.9-4.57-1.9-1.9,4.57,4.57,1.9.37-.9,39.65,16.49-7.74,18.62-39.65-16.49.37-.9-4.57-1.9-1.9,4.57,4.57,1.9.37-.9,39.65,16.49-7.74,18.62-39.65-16.49.37-.9-4.57-1.9-1.9,4.57,4.57,1.9.37-.9,39.65,16.49-7.74,18.62-39.65-16.49.37-.9-4.57-1.9-1.9,4.57,4.57,1.9.37-.9,39.65,16.49-7.31,17.56-41.72-17.35-.96,2.31c-3.85,9.25-3.86,19.46-.04,28.72,3.82,9.27,11.03,16.49,20.29,20.34l39.93,16.61c4.61,1.92,9.46,2.89,14.4,2.89,15.22,0,28.83-9.08,34.67-23.13l.96-2.31-45.07-18.75,7.31-17.57,37.72,15.69-.37.9,4.57,1.9,1.9-4.57-4.57-1.9-.37.9-37.72-15.69,7.74-18.62,37.72,15.69-.37.9,4.57,1.9,1.9-4.57-4.57-1.9-.37.9-37.72-15.69,7.74-18.62,37.72,15.69-.37.9,4.57,1.9,1.9-4.57-4.57-1.9-.37.9-37.72-15.69,7.74-18.62,37.72,15.69-.37.9,4.57,1.9,1.9-4.57-4.57-1.9-.37.9-37.72-15.69,7.74-18.62,37.72,15.69-.37.9,4.57,1.9,1.9-4.57-4.57-1.9-.37.9-37.72-15.69,7.74-18.62,37.72,15.69-.37.9,4.57,1.9,1.9-4.57-4.57-1.9-.37.9-37.72-15.69,7.74-18.62,37.72,15.69-.37.9,4.57,1.9,1.9-4.57-4.57-1.9-.37.9-37.72-15.69,7.74-18.62,37.72,15.69-.37.9,4.57,1.9,1.9-4.57-4.57-1.9-.37.9-37.72-15.69,7.74-18.62,37.72,15.69-.37.9,4.57,1.9,1.9-4.57-4.57-1.9-.37.9-37.72-15.69,7.32-17.6,42.63,17.73,2.41.93.96-2.53c.31-.76.59-1.53.85-2.31v-.02s0,0,0,0c6.16-18.45-2.97-38.92-21.19-46.5l-39.93-16.61c-4.61-1.92-9.46-2.89-14.4-2.89-15.07,0-28.63,8.96-34.54,22.83-.06.13-.12.26-.17.4l-.84,2.25,41.76,17.37-7.32,17.6-39.65-16.49.37-.9-4.57-1.9-1.9,4.57,4.57,1.9.37-.9,39.65,16.49-7.74,18.62-39.65-16.49.37-.9-4.57-1.9-1.9,4.57,4.57,1.9.37-.9,39.65,16.49-7.74,18.62-39.65-16.49.37-.9-4.57-1.9-1.9,4.57,4.57,1.9.37-.9,39.65,16.49-7.74,18.62-39.65-16.49.37-.9-4.57-1.9-1.9,4.57,4.57,1.9.37-.9,39.65,16.49-7.74,18.62-39.65-16.49.37-.9-4.57-1.9Z"/>
  </g>
</svg>