<?xml version="1.0" encoding="UTF-8"?>
<svg xmlns="http://www.w3.org/2000/svg" version="1.1" viewBox="0 0 1920 1080">
  <!-- Generator: Adobe Illustrator 30.0.0, SVG Export Plug-In . SVG Version: 2.1.1 Build 123)  -->
  <g id="base_map" display="none">
    <g id="parking_map">
      <path d="M1319.42,636.83l-237.56-95.84c-1.16-.58-16.12-8.73-3.33-37.29,14.17-31.63,38.63-98.38,38.86-99.01.27-.69,6.48-17.11-3.29-32.31-9.15-14.23-39.58-44.04-41.41-45.83-1.22-1.31-18.21-19.06-36.71-17.15l-17.19-41.72-200.49,82.64,18.08,43.89c-8.01,1.35-31.72,1.98-45.11-33.35-13.08-34.51-21.99-57.5-25.22-65.79h0c-1.54-3.99-2.37-6.07-2.37-6.07l-4.65,1.83s.82,2.08,2.35,6.05l2.05-.79-2.05.8c3.22,8.28,12.13,31.25,25.2,65.75,17.66,46.61,53.62,35.86,53.98,35.75l2.6-.82-18.34-44.52,18.18-7.49,15.85,38.47-.9.37,1.89,4.58,4.58-1.89-1.89-4.58-.9.37-15.85-38.47,18.99-7.83,15.85,38.47-.9.37,1.89,4.58,4.58-1.89-1.89-4.58-.9.37-15.85-38.47,18.99-7.83,15.85,38.47-.9.37,1.89,4.58,4.58-1.89-1.89-4.58-.9.37-15.85-38.47,18.99-7.83,15.85,38.47-.9.37,1.89,4.58,4.58-1.89-1.89-4.58-.9.37-15.85-38.47,18.99-7.83,15.85,38.47-.9.37,1.89,4.58,4.58-1.89-1.89-4.58-.9.37-15.85-38.47,18.99-7.83,15.85,38.47-.9.37,1.89,4.58,4.58-1.89-1.89-4.58-.9.37-15.85-38.47,18.99-7.83,15.85,38.47-.9.37,1.89,4.58,4.58-1.89-1.89-4.58-.9.37-15.85-38.47,18.99-7.83,15.85,38.46-.9.37,1.89,4.58,4.58-1.89-1.89-4.58-.9.37-15.85-38.46,17.95-7.4,16.8,40.76,1.99-.36c16.83-3.08,34.03,15.21,34.21,15.39l.09.09c.32.31,31.81,31.12,40.74,45,8.36,13.01,2.89,27.65,2.82,27.84-.25.67-24.64,67.25-38.74,98.73-15.13,33.78,5.62,43.8,5.84,43.89l233.28,94.12-12.42,34.38-25.98,62.44-.22.54.03.58c.01.19.97,18.87-10.95,43.24-7.92,16.2-22.86,37.37-50.92,57.38l-13.22-33.22.91-.36-1.83-4.6-4.6,1.83,1.83,4.6.91-.36,13.47,33.88c-5.42,3.75-11.29,7.45-17.69,11.06l-14.86-37.35.91-.36-1.83-4.6-4.6,1.83,1.83,4.6.91-.36,14.99,37.7c-5.17,2.84-10.64,5.62-16.48,8.32-.65.3-1.3.58-1.95.88l-15.64-39.31.91-.36-1.83-4.6-4.6,1.83,1.83,4.6.91-.36,15.69,39.43c-6.45,2.87-12.79,5.46-19,7.76l-15.75-39.61.91-.36-1.83-4.6-4.6,1.83,1.83,4.6.91-.36,15.72,39.51c-6.7,2.4-13.25,4.48-19.62,6.2l-15.17-38.13.91-.36-1.83-4.6-4.6,1.83,1.83,4.6.91-.36,15.03,37.78c-7.04,1.81-13.86,3.2-20.43,4.17l-13.67-34.37.91-.36-1.83-4.6-4.6,1.83,1.83,4.6.91-.36,13.4,33.69c-30.92,4-55.92-1.54-71.44-16.8-10.64-10.46-15.29-24.69-13.61-40.16l34.46,14.33-.37.9,4.57,1.9,1.9-4.57-4.57-1.9-.37.9-35.2-14.64c.9-5.57,2.6-11.28,5.13-17.01l1.11-2.62,36.84,15.32-.37.9,4.57,1.9,1.9-4.57-4.57-1.9-.37.9-36.82-15.31,8.04-18.89,36.66,15.25-.37.9,4.57,1.9,1.9-4.57-4.57-1.9-.37.9-36.64-15.24,8.04-18.89,36.48,15.17-.37.9,4.57,1.9,1.9-4.57-4.57-1.9-.37.9-36.46-15.16,8.04-18.89,36.3,15.1-.37.9,4.57,1.9,1.9-4.57-4.57-1.9-.37.9-36.28-15.09,8.04-18.89,36.13,15.02-.37.9,4.57,1.9,1.9-4.57-4.57-1.9-.37.9-36.1-15.02,19.01-44.66,44.86,18.35-15.05,37.22-.9-.37-1.86,4.59,4.59,1.86,1.86-4.59-.9-.37,15.05-37.21,19,7.77-15.02,37.13-.9-.37-1.86,4.59,4.59,1.86,1.86-4.59-.9-.37,15.01-37.12,19,7.77-14.99,37.05-.9-.37-1.86,4.59,4.59,1.86,1.86-4.59-.9-.37,14.98-37.04,19,7.77-14.95,36.97-.9-.37-1.86,4.59,4.59,1.86,1.86-4.59-.9-.37,14.95-36.95,19,7.77-14.92,36.88-.9-.37-1.86,4.59,4.59,1.86,1.86-4.59-.9-.37,14.91-36.87,19,7.77-14.88,36.8-.9-.37-1.86,4.59,4.59,1.86,1.86-4.59-.9-.37,14.88-36.79,3.92,1.6,5.89-13.85-7.85-3.25,15.56-37.41.9.37,1.9-4.57-4.57-1.9-1.9,4.57.9.37-15.56,37.42-18.96-7.85,15.58-37.45.9.37,1.9-4.57-4.57-1.9-1.9,4.57.9.37-15.58,37.45-18.96-7.85,15.59-37.49.9.37,1.9-4.57-4.57-1.9-1.9,4.57.9.37-15.59,37.49-18.96-7.85,15.61-37.52.9.37,1.9-4.57-4.57-1.9-1.9,4.57.9.37-15.61,37.53-18.96-7.85,15.62-37.56.9.37,1.9-4.57-4.57-1.9-1.9,4.57.9.37-15.62,37.57-18.96-7.85,15.64-37.6.9.37,1.9-4.57-4.57-1.9-1.9,4.57.9.37-15.64,37.6-18.96-7.85,15.65-37.64.9.37,1.9-4.57-4.57-1.9-1.9,4.57.9.37-15.65,37.64-23.34-9.66,15.98-38.42-1.39-1.18c-.94-.8-23.24-19.53-43.31-15.62-8.64,1.68-15.5,7.27-20.38,16.61l-1.26,2.42,43.82,18.23-7.41,17.82-38.02-15.81.37-.9-4.57-1.9-1.9,4.57,4.57,1.9.37-.9,38.02,15.81-7.74,18.62-38.02-15.81.37-.9-4.57-1.9-1.9,4.57,4.57,1.9.37-.9,38.02,15.81-7.74,18.62-38.02-15.81.37-.9-4.57-1.9-1.9,4.57,4.57,1.9.37-.9,38.02,15.81-7.74,18.62-38.02-15.81.37-.9-4.57-1.9-1.9,4.57,4.57,1.9.37-.9,38.02,15.81-7.74,18.62-38.02-15.81.37-.9-4.57-1.9-1.9,4.57,4.57,1.9.37-.9,38.02,15.81-7.74,18.62-38.02-15.81.37-.9-4.57-1.9-1.9,4.57,4.57,1.9.37-.9,38.01,15.81-7.74,18.62-38.01-15.81.37-.9-4.57-1.9-1.9,4.57,4.57,1.9.37-.9,38.01,15.81-7.74,18.62-38.01-15.81.37-.9-4.57-1.9-1.9,4.57,4.57,1.9.37-.9,38.01,15.81-7.74,18.62-38.01-15.81.37-.9-4.57-1.9-1.9,4.57,4.57,1.9.37-.9,38.01,15.81-7.31,17.57-47.29-19.67-22.2,54.63c-2.38,5.86-6.9,10.42-12.73,12.86-5.83,2.44-12.25,2.44-18.09.02l-263.77-109.44-.36-.14-.36-.04c-.17-.02-16.87-2.14-25.91-35.45-7.79-28.69-100.1-255.53-139.43-351.73-7.39-18.1,1.29-38.88,19.32-46.3l5.53-2.14-17.76-43.08,18.59-7.66,15.59,37.81-.9.37,1.89,4.58,4.58-1.89-1.89-4.58-.9.37-15.59-37.81,18.99-7.83,15.59,37.81-.9.37,1.89,4.58,4.58-1.89-1.89-4.58-.9.37-15.59-37.81,18.99-7.83,15.59,37.81-.9.37,1.89,4.58,4.58-1.89-1.89-4.58-.9.37-15.59-37.81,18.99-7.83,15.59,37.81-.9.37,1.89,4.58,4.58-1.89-1.89-4.58-.9.37-15.59-37.81,16.83-6.94,18.12,43.95,1.95-.31c.19-.03,19.55-2.98,30.23,5.02,3.87,2.9,6.07,6.8,6.73,11.93l.42,3.24,47.03-19.39,7.84,19.02-39.22,16.17-.37-.9-4.58,1.89,1.89,4.58,4.58-1.89-.37-.9,39.22-16.17,7.83,18.99-39.22,16.17-.37-.9-4.58,1.89,1.89,4.58,4.58-1.89-.37-.9,39.22-16.17,7.83,18.99-39.22,16.17-.37-.9-4.58,1.89,1.89,4.58,4.58-1.89-.37-.9,39.22-16.17,7.83,18.99-39.22,16.17-.37-.9-4.58,1.89,1.89,4.58,4.58-1.89-.37-.9,39.22-16.17,6.4,15.54-45.8,18.88.45,2.05c.14.65,3.65,15.98,14.2,21.34,4.93,2.5,10.48,2.43,16.5-.22,20.77-9.12,38.77-18.36,38.95-18.46l.13-.07c.12-.07,12.45-7.68,5.14-26.66-4.7-12.22-41.72-102.52-69.16-169.39l-4.63,1.9c17.47,42.59,63.89,155.71,69.12,169.29,5.58,14.51-2.26,20.06-2.99,20.54-1.41.72-18.72,9.56-38.58,18.28-4.65,2.04-8.64,2.15-12.22.34-6.47-3.27-9.81-11.99-11.04-15.96l46.44-19.14-46.1-111.87-45.8,18.89c-1.28-4.99-3.99-9.06-8.1-12.14-10.31-7.72-26.42-6.8-32.03-6.2l-18.54-44.98-112.73,46.47,17.72,42.98-.82.32c-20.61,8.49-30.52,32.2-22.09,52.84,30.66,74.99,131.3,321.93,139.23,351.15,9.33,34.39,26.76,38.58,29.85,39.06l263.47,109.31c3.53,1.46,7.23,2.2,10.93,2.2s7.46-.74,11-2.22c7.07-2.95,12.55-8.49,15.44-15.59l20.3-49.96,47.25,19.65,90.89-218.5-43.31-18.02c3.99-6.49,9.21-10.4,15.54-11.63,15.07-2.94,32.67,9.51,37.71,13.4l-16.48,39.62,164.34,68.02-1.99,4.67-160.42-65.61-60.06,141.13c-2.57,5.82-4.33,11.62-5.33,17.31l-1.05,2.52.62.26c-2.32,17.53,2.79,33.8,14.93,45.72,27.95,27.46,83.87,25.71,149.59-4.68,56.15-25.97,81.46-59.27,92.81-82.63,11.32-23.31,11.43-41.3,11.33-44.84l25.79-61.99,14.12-39.08Z"/>
      <path d="M593.31,390.44l-1.93-2.58c-7.2-9.61-18.69-15.35-30.73-15.35-5,0-9.92.98-14.62,2.91-9.49,3.91-16.88,11.28-20.83,20.76-3.94,9.47-3.96,19.91-.05,29.4l19.74,47.89c5.95,14.45,19.9,23.79,35.53,23.79,5,0,9.92-.98,14.62-2.91,16.77-6.92,26.49-24.85,23.11-42.66l-.57-3.01-37.78,15.57-6.79-16.47,39.15-16.14.37.9,4.58-1.89-1.89-4.58-4.58,1.89.37.9-39.15,16.14-7.83-18.99,39.15-16.14.37.9,4.58-1.89-1.89-4.58-4.58,1.89.37.9-39.15,16.14-7.14-17.31,37.54-15.48Z"/>
      <path d="M741.28,489.99l-2.21.99,16.96,41.15-18.26,7.52-15.52-37.65.9-.37-1.89-4.58-4.58,1.89,1.89,4.58.9-.37,15.52,37.65-18.99,7.83-15.52-37.65.9-.37-1.89-4.58-4.58,1.89,1.89,4.58.9-.37,15.52,37.65-18.99,7.83-15.52-37.65.9-.37-1.89-4.58-4.58,1.89,1.89,4.58.9-.37,15.52,37.65-18.99,7.83-15.52-37.65.9-.37-1.89-4.58-4.58,1.89,1.89,4.58.9-.37,15.52,37.65-18.19,7.5-17.18-41.7-20.67,8.79c-20.14,8.57-29.73,32-21.39,52.22l.95,2.31,43.38-17.88,7.55,18.31-38,15.66-.37-.9-4.58,1.89,1.89,4.58,4.58-1.89-.37-.9,38-15.66,7.83,18.99-38,15.66-.37-.9-4.58,1.89,1.89,4.58,4.58-1.89-.37-.9,38-15.66,7.83,18.99-38.01,15.66-.37-.9-4.58,1.89,1.89,4.58,4.58-1.89-.37-.9,38.01-15.66,7.83,18.99-38.01,15.66-.37-.9-4.58,1.89,1.89,4.58,4.58-1.89-.37-.9,38.01-15.66,7.83,18.99-38.01,15.67-.37-.9-4.58,1.89,1.89,4.58,4.58-1.89-.37-.9,38.01-15.67,7.6,18.44-45.32,18.68,1.95,2.58c.4.54,10.1,13.23,26.8,22.12,8.37,4.46,19.38,8.34,32.33,8.34,11.09,0,23.6-2.85,37.09-10.63l4.38-2.53-51.92-21.6,7.3-17.55,39.43,16.4-.37.9,4.57,1.9,1.9-4.57-4.57-1.9-.37.9-39.43-16.4,7.74-18.62,39.43,16.4-.37.9,4.57,1.9,1.9-4.57-4.57-1.9-.37.9-39.43-16.4,7.75-18.62,39.42,16.4-.37.9,4.57,1.9,1.9-4.57-4.57-1.9-.37.9-39.42-16.4,7.74-18.62,39.42,16.4-.37.9,4.57,1.9,1.9-4.57-4.57-1.9-.37.9-39.42-16.4,7.74-18.62,39.42,16.4-.37.9,4.57,1.9,1.9-4.57-4.57-1.9-.37.9-39.42-16.4,7.74-18.62,39.42,16.39-.37.9,4.57,1.9,1.9-4.57-4.57-1.9-.37.9-39.42-16.39,7.74-18.62,39.42,16.39-.37.9,4.57,1.9,1.9-4.57-4.57-1.9-.37.9-39.42-16.39,7.74-18.62,39.42,16.39-.37.9,4.57,1.9,1.9-4.57-4.57-1.9-.37.9-39.42-16.39,7.74-18.62,39.41,16.39-.37.9,4.57,1.9,1.9-4.57-4.57-1.9-.37.9-39.41-16.39,7.42-17.84,45.09,18.75,2.22.03.68-1.57c1.02-2.34-1.65-23.76-15.72-37.66-11.16-11.02-32.73-20.45-72.13-2.79Z"/>
      <path d="M934.91,458.4l-17.5-42.46-2.63,2.32c-11.69,10.33-17.33,20.76-16.79,30.98.69,12.97,11.15,20.53,11.6,20.84l.44.25c.42.18,41.92,18.53,71.38,31,6.49,2.75,12.38,3.84,17.64,3.84,20.12,0,31.01-15.96,31.15-16.17l1.68-2.53-46.22-19.22,8.19-19.68,37.69,15.67-.37.9,4.57,1.9,1.9-4.57-4.57-1.9-.37.9-37.69-15.67,6.91-16.6,37.59,15.63-.37.9,4.57,1.9,1.9-4.57-4.57-1.9-.37.9-37.59-15.63,7.64-18.36,46.23,19.22.76-2.72c4.05-14.43,2.64-25.98-4.18-34.32-12.92-15.81-40.33-13.99-41.5-13.9l-.38.03-55.71,21.93,18.49,44.84-17.29,7.12-16.09-39.05.9-.37-1.89-4.58-4.58,1.89,1.89,4.58.9-.37,16.09,39.05-19.41,8Z"/>
      <path d="M829.87,653.71l-1.9,4.57,4.57,1.9.37-.9,39.65,16.49-7.74,18.62-39.65-16.49.37-.9-4.57-1.9-1.9,4.57,4.57,1.9.37-.9,39.65,16.49-7.74,18.62-39.65-16.49.37-.9-4.57-1.9-1.9,4.57,4.57,1.9.37-.9,39.65,16.49-7.74,18.62-39.65-16.49.37-.9-4.57-1.9-1.9,4.57,4.57,1.9.37-.9,39.65,16.49-7.74,18.62-39.65-16.49.37-.9-4.57-1.9-1.9,4.57,4.57,1.9.37-.9,39.65,16.49-7.31,17.56-41.72-17.35-.96,2.31c-3.85,9.25-3.86,19.46-.04,28.72,3.82,9.27,11.03,16.49,20.29,20.34l39.93,16.61c4.61,1.92,9.46,2.89,14.4,2.89,15.22,0,28.83-9.08,34.67-23.13l.96-2.31-45.07-18.75,7.31-17.57,37.72,15.69-.37.9,4.57,1.9,1.9-4.57-4.57-1.9-.37.9-37.72-15.69,7.74-18.62,37.72,15.69-.37.9,4.57,1.9,1.9-4.57-4.57-1.9-.37.9-37.72-15.69,7.74-18.62,37.72,15.69-.37.9,4.57,1.9,1.9-4.57-4.57-1.9-.37.9-37.72-15.69,7.74-18.62,37.72,15.69-.37.9,4.57,1.9,1.9-4.57-4.57-1.9-.37.9-37.72-15.69,7.74-18.62,37.72,15.69-.37.9,4.57,1.9,1.9-4.57-4.57-1.9-.37.9-37.72-15.69,7.74-18.62,37.72,15.69-.37.9,4.57,1.9,1.9-4.57-4.57-1.9-.37.9-37.72-15.69,7.74-18.62,37.72,15.69-.37.9,4.57,1.9,1.9-4.57-4.57-1.9-.37.9-37.72-15.69,7.74-18.62,37.72,15.69-.37.9,4.57,1.9,1.9-4.57-4.57-1.9-.37.9-37.72-15.69,7.74-18.62,37.72,15.69-.37.9,4.57,1.9,1.9-4.57-4.57-1.9-.37.9-37.72-15.69,7.32-17.6,42.63,17.73,2.41.93.96-2.53c.31-.76.59-1.53.85-2.31v-.02s0,0,0,0c6.16-18.45-2.97-38.92-21.19-46.5l-39.93-16.61c-4.61-1.92-9.46-2.89-14.4-2.89-15.07,0-28.63,8.96-34.54,22.83-.06.13-.12.26-.17.4l-.84,2.25,41.76,17.37-7.32,17.6-39.65-16.49.37-.9-4.57-1.9-1.9,4.57,4.57,1.9.37-.9,39.65,16.49-7.74,18.62-39.65-16.49.37-.9-4.57-1.9-1.9,4.57,4.57,1.9.37-.9,39.65,16.49-7.74,18.62-39.65-16.49.37-.9-4.57-1.9-1.9,4.57,4.57,1.9.37-.9,39.65,16.49-7.74,18.62-39.65-16.49.37-.9-4.57-1.9-1.9,4.57,4.57,1.9.37-.9,39.65,16.49-7.74,18.62-39.65-16.49.37-.9-4.57-1.9Z"/>
    </g>
  </g>
  <g id="parking_status">
    <rect id="_x31_" x="823.29" y="361.56" width="37.4" height="14.64" transform="translate(862.18 -550.15) rotate(67.6)" fill="#a0a0a0"/>
    <rect id="_x32_" x="844.75" y="352.71" width="37.4" height="14.64" transform="translate(867.28 -575.47) rotate(67.6)" fill="#a0a0a0"/>
    <rect id="_x33_" x="866.22" y="343.86" width="37.4" height="14.64" transform="translate(872.39 -600.79) rotate(67.6)" fill="#a0a0a0"/>
    <rect id="_x34_" x="887.96" y="335.02" width="37.4" height="14.64" transform="translate(877.66 -626.36) rotate(67.6)" fill="#a0a0a0"/>
    <rect id="_x35_" x="909.69" y="326.17" width="37.4" height="14.64" transform="translate(882.94 -651.93) rotate(67.6)" fill="#a0a0a0"/>
    <rect id="_x36_" x="931.43" y="317.32" width="37.4" height="14.64" transform="translate(888.21 -677.51) rotate(67.6)" fill="#a0a0a0"/>
    <rect id="_x37_6" x="646.97" y="697.02" width="37.4" height="14.64" transform="translate(-218.17 306.81) rotate(-22.4)" fill="#a0a0a0"/>
    <rect id="_x37_7" x="638.12" y="675.55" width="37.4" height="14.64" transform="translate(-210.66 301.82) rotate(-22.4)" fill="#a0a0a0"/>
    <rect id="_x37_8" x="629.28" y="654.09" width="37.4" height="14.64" transform="translate(-203.15 296.83) rotate(-22.4)" fill="#a0a0a0"/>
    <rect id="_x37_9" x="620.43" y="632.35" width="37.4" height="14.64" transform="translate(-195.53 291.82) rotate(-22.4)" fill="#a0a0a0"/>
    <rect id="_x38_0" x="611.68" y="611.39" width="37.4" height="14.64" transform="translate(-188.21 286.9) rotate(-22.4)" fill="#a0a0a0"/>
    <rect id="_x38_1" x="602.74" y="588.87" width="37.4" height="14.64" transform="translate(-180.3 281.79) rotate(-22.4)" fill="#a0a0a0"/>
    <rect id="_x38_2" x="633.67" y="543.14" width="37.4" height="14.64" transform="translate(912.7 -262.45) rotate(67.6)" fill="#a0a0a0"/>
    <rect id="_x38_3" x="655.13" y="534.3" width="37.4" height="14.64" transform="translate(917.81 -287.77) rotate(67.6)" fill="#a0a0a0"/>
    <rect id="_x38_4" x="676.6" y="525.45" width="37.4" height="14.64" transform="translate(922.91 -313.09) rotate(67.6)" fill="#a0a0a0"/>
    <rect id="_x38_5" x="698.34" y="516.6" width="37.4" height="14.64" transform="translate(928.19 -338.66) rotate(67.6)" fill="#a0a0a0"/>
    <rect id="_x38_6" x="719.29" y="507.85" width="37.4" height="14.64" transform="translate(933.07 -363.45) rotate(67.6)" fill="#a0a0a0"/>
    <rect id="_x38_7" x="549.42" y="276.54" width="37.4" height="14.64" transform="translate(522.17 917.28) rotate(-112.4)" fill="#a0a0a0"/>
    <rect id="_x38_8" x="527.95" y="285.38" width="37.4" height="14.64" transform="translate(484.35 909.65) rotate(-112.4)" fill="#a0a0a0"/>
    <rect id="_x38_9" x="506.49" y="294.23" width="37.4" height="14.64" transform="translate(446.52 902.02) rotate(-112.4)" fill="#a0a0a0"/>
    <rect id="_x39_2" x="559.92" y="398.62" width="37.4" height="14.64" transform="translate(1268.27 560.77) rotate(157.6)" fill="#a0a0a0"/>
    <rect id="_x39_3" x="568.77" y="420.09" width="37.4" height="14.64" transform="translate(1293.47 598.7) rotate(157.6)" fill="#a0a0a0"/>
    <rect id="_x39_4" x="577.61" y="441.55" width="37.4" height="14.64" transform="translate(1318.68 636.64) rotate(157.6)" fill="#a0a0a0"/>
    <rect id="_x39_0" x="484.75" y="303.08" width="37.4" height="14.64" transform="translate(408.32 894.14) rotate(-112.4)" fill="#a0a0a0"/>
    <rect id="_x39_1" x="463.8" y="311.83" width="37.4" height="14.64" transform="translate(371.29 886.85) rotate(-112.4)" fill="#a0a0a0"/>
    <rect id="_x31_00" x="672.57" y="402.28" width="37.4" height="14.64" transform="translate(-103.93 294.32) rotate(-22.4)" fill="#a0a0a0"/>
    <rect id="_x39_9" x="663.72" y="380.81" width="37.4" height="14.64" transform="translate(-96.41 289.33) rotate(-22.4)" fill="#a0a0a0"/>
    <rect id="_x39_7" x="654.88" y="359.35" width="37.4" height="14.64" transform="translate(-88.9 284.34) rotate(-22.4)" fill="#a0a0a0"/>
    <rect id="_x39_6" x="646.03" y="337.61" width="37.4" height="14.64" transform="translate(-81.29 279.33) rotate(-22.4)" fill="#a0a0a0"/>
    <rect id="_x39_5" x="637.28" y="316.65" width="37.4" height="14.64" transform="translate(-73.96 274.41) rotate(-22.4)" fill="#a0a0a0"/>
    <rect id="_x37_" x="953.17" y="308.48" width="37.4" height="14.64" transform="translate(893.49 -703.08) rotate(67.6)" fill="#a0a0a0"/>
    <rect id="_x38_" x="974.91" y="299.63" width="37.4" height="14.64" transform="translate(898.77 -728.66) rotate(67.6)" fill="#a0a0a0"/>
    <rect id="_x39_" x="996.65" y="290.1" width="37.4" height="14.64" transform="translate(903.41 -754.66) rotate(67.6)" fill="#a0a0a0"/>
    <rect id="_x31_5" x="1085.59" y="631.95" width="37.4" height="14.64" transform="translate(2118.69 -134.75) rotate(112.59)" fill="#a0a0a0"/>
    <rect id="_x31_6" x="1107.02" y="640.86" width="37.4" height="14.64" transform="translate(2156.59 -142.2) rotate(112.59)" fill="#a0a0a0"/>
    <rect id="_x31_7" x="1128.46" y="649.78" width="37.4" height="14.64" transform="translate(2194.49 -149.64) rotate(112.59)" fill="#a0a0a0"/>
    <rect id="_x31_8" x="1150.09" y="658.89" width="37.4" height="14.64" transform="translate(2232.85 -157) rotate(112.59)" fill="#a0a0a0"/>
    <rect id="_x31_9" x="1171.72" y="668.01" width="37.4" height="14.64" transform="translate(2271.2 -164.36) rotate(112.59)" fill="#a0a0a0"/>
    <rect id="_x32_0" x="1193.85" y="677.62" width="37.4" height="14.64" transform="translate(2310.71 -171.48) rotate(112.59)" fill="#a0a0a0"/>
    <rect id="_x32_1" x="1215.48" y="686.74" width="37.4" height="14.64" transform="translate(2349.06 -178.84) rotate(112.59)" fill="#a0a0a0"/>
    <rect id="_x33_4" x="952.77" y="819.76" width="37.4" height="14.64" transform="translate(392.23 -309.71) rotate(22.59)" fill="#a0a0a0"/>
    <rect id="_x33_5" x="961.67" y="798.57" width="37.4" height="14.64" transform="translate(384.77 -314.76) rotate(22.59)" fill="#a0a0a0"/>
    <rect id="_x33_6" x="970.58" y="777.37" width="37.4" height="14.64" transform="translate(377.31 -319.8) rotate(22.59)" fill="#a0a0a0"/>
    <rect id="_x33_7" x="979.48" y="756.18" width="37.4" height="14.64" transform="translate(369.85 -324.85) rotate(22.59)" fill="#a0a0a0"/>
    <rect id="_x33_8" x="988.38" y="734.98" width="37.4" height="14.64" transform="translate(362.39 -329.89) rotate(22.59)" fill="#a0a0a0"/>
    <rect id="_x33_9" x="997.28" y="713.78" width="37.4" height="14.64" transform="translate(354.93 -334.94) rotate(22.59)" fill="#a0a0a0"/>
    <rect id="_x34_0" x="1006.18" y="692.59" width="37.4" height="14.64" transform="translate(347.48 -339.98) rotate(22.59)" fill="#a0a0a0"/>
    <rect id="_x34_1" x="1015.08" y="671.39" width="37.4" height="14.64" transform="translate(340.02 -345.03) rotate(22.59)" fill="#a0a0a0"/>
    <rect id="_x34_2" x="1023.99" y="650.2" width="37.4" height="14.64" transform="translate(332.56 -350.07) rotate(22.59)" fill="#a0a0a0"/>
    <rect id="_x34_4" x="1032.89" y="629" width="37.4" height="14.64" transform="translate(325.1 -355.12) rotate(22.59)" fill="#a0a0a0"/>
    <rect id="_x34_5" x="856.77" y="780.49" width="37.4" height="14.64" transform="translate(369.78 -275.85) rotate(22.59)" fill="#a0a0a0"/>
    <rect id="_x34_6" x="865.67" y="759.3" width="37.4" height="14.64" transform="translate(362.32 -280.89) rotate(22.59)" fill="#a0a0a0"/>
    <rect id="_x34_7" x="874.58" y="738.1" width="37.4" height="14.64" transform="translate(354.86 -285.94) rotate(22.59)" fill="#a0a0a0"/>
    <rect id="_x34_8" x="883.48" y="716.9" width="37.4" height="14.64" transform="translate(347.4 -290.98) rotate(22.59)" fill="#a0a0a0"/>
    <rect id="_x34_9" x="892.38" y="695.71" width="37.4" height="14.64" transform="translate(339.94 -296.03) rotate(22.59)" fill="#a0a0a0"/>
    <rect id="_x35_0" x="901.28" y="674.51" width="37.4" height="14.64" transform="translate(332.48 -301.08) rotate(22.59)" fill="#a0a0a0"/>
    <rect id="_x35_2" x="910.18" y="653.32" width="37.4" height="14.64" transform="translate(325.03 -306.12) rotate(22.59)" fill="#a0a0a0"/>
    <rect id="_x35_3" x="919.08" y="632.12" width="37.4" height="14.64" transform="translate(317.57 -311.17) rotate(22.59)" fill="#a0a0a0"/>
    <rect id="_x35_4" x="927.99" y="610.92" width="37.4" height="14.64" transform="translate(310.11 -316.21) rotate(22.59)" fill="#a0a0a0"/>
    <rect id="_x35_5" x="936.89" y="589.73" width="37.4" height="14.64" transform="translate(302.65 -321.26) rotate(22.59)" fill="#a0a0a0"/>
    <rect id="_x35_6" x="794.46" y="754.28" width="37.4" height="14.64" transform="translate(354.93 -253.92) rotate(22.59)" fill="#a0a0a0"/>
    <rect id="_x35_7" x="803.36" y="733.08" width="37.4" height="14.64" transform="translate(347.47 -258.97) rotate(22.59)" fill="#a0a0a0"/>
    <rect id="_x35_8" x="812.27" y="711.88" width="37.4" height="14.64" transform="translate(340.01 -264.02) rotate(22.59)" fill="#a0a0a0"/>
    <rect id="_x35_9" x="821.17" y="690.69" width="37.4" height="14.64" transform="translate(332.55 -269.06) rotate(22.59)" fill="#a0a0a0"/>
    <rect id="_x36_0" x="830.07" y="669.49" width="37.4" height="14.64" transform="translate(325.09 -274.11) rotate(22.59)" fill="#a0a0a0"/>
    <rect id="_x36_1" x="838.97" y="648.3" width="37.4" height="14.64" transform="translate(317.63 -279.15) rotate(22.59)" fill="#a0a0a0"/>
    <rect id="_x36_2" x="847.87" y="627.1" width="37.4" height="14.64" transform="translate(310.18 -284.2) rotate(22.59)" fill="#a0a0a0"/>
    <rect id="_x36_3" x="856.77" y="605.9" width="37.4" height="14.64" transform="translate(302.72 -289.24) rotate(22.59)" fill="#a0a0a0"/>
    <rect id="_x36_4" x="865.67" y="584.71" width="37.4" height="14.64" transform="translate(295.26 -294.29) rotate(22.59)" fill="#a0a0a0"/>
    <rect id="_x36_5" x="874.58" y="563.51" width="37.4" height="14.64" transform="translate(287.8 -299.33) rotate(22.59)" fill="#a0a0a0"/>
    <rect id="_x36_6" x="698.46" y="713.78" width="37.4" height="14.64" transform="translate(332.01 -220.16) rotate(22.59)" fill="#a0a0a0"/>
    <rect id="_x36_7" x="707.36" y="692.59" width="37.4" height="14.64" transform="translate(324.55 -225.2) rotate(22.59)" fill="#a0a0a0"/>
    <rect id="_x36_8" x="716.27" y="671.39" width="37.4" height="14.64" transform="translate(317.09 -230.25) rotate(22.59)" fill="#a0a0a0"/>
    <rect id="_x36_9" x="725.17" y="650.2" width="37.4" height="14.64" transform="translate(309.63 -235.29) rotate(22.59)" fill="#a0a0a0"/>
    <rect id="_x37_0" x="734.07" y="629" width="37.4" height="14.64" transform="translate(302.17 -240.34) rotate(22.59)" fill="#a0a0a0"/>
    <rect id="_x37_1" x="742.97" y="607.81" width="37.4" height="14.64" transform="translate(294.72 -245.38) rotate(22.59)" fill="#a0a0a0"/>
    <rect id="_x37_2" x="751.87" y="586.61" width="37.4" height="14.64" transform="translate(287.26 -250.43) rotate(22.59)" fill="#a0a0a0"/>
    <rect id="_x37_3" x="760.77" y="565.41" width="37.4" height="14.64" transform="translate(279.8 -255.47) rotate(22.59)" fill="#a0a0a0"/>
    <rect id="_x37_4" x="769.67" y="544.22" width="37.4" height="14.64" transform="translate(272.34 -260.52) rotate(22.59)" fill="#a0a0a0"/>
    <rect id="_x37_5" x="778.58" y="523.02" width="37.4" height="14.64" transform="translate(264.88 -265.56) rotate(22.59)" fill="#a0a0a0"/>
    <rect id="_x31_71" data-name="_x31_7" x="1109.56" y="705.19" width="37.4" height="14.64" transform="translate(2219.5 -55.51) rotate(112.59)" fill="#a0a0a0"/>
    <rect id="_x31_81" data-name="_x31_8" x="1131.19" y="714.3" width="37.4" height="14.64" transform="translate(2257.85 -62.87) rotate(112.59)" fill="#a0a0a0"/>
    <rect id="_x31_91" data-name="_x31_9" x="1152.82" y="723.41" width="37.4" height="14.64" transform="translate(2296.2 -70.23) rotate(112.59)" fill="#a0a0a0"/>
    <rect id="_x32_3" x="1174.96" y="733.03" width="37.4" height="14.64" transform="translate(2335.71 -77.35) rotate(112.59)" fill="#a0a0a0"/>
    <rect id="_x32_2" x="1196.59" y="742.14" width="37.4" height="14.64" transform="translate(2374.06 -84.71) rotate(112.59)" fill="#a0a0a0"/>
    <rect id="_x32_8" x="1020.87" y="814.74" width="37.4" height="14.64" transform="translate(395.52 -336.25) rotate(22.59)" fill="#a0a0a0"/>
    <rect id="_x32_7" x="1029.99" y="793.11" width="37.4" height="14.64" transform="translate(387.91 -341.41) rotate(22.59)" fill="#a0a0a0"/>
    <rect id="_x32_6" x="1039.1" y="771.48" width="37.4" height="14.64" transform="translate(380.3 -346.57) rotate(22.59)" fill="#a0a0a0"/>
    <rect id="_x32_5" x="1048.71" y="749.35" width="37.4" height="14.64" transform="translate(372.54 -351.97) rotate(22.59)" fill="#a0a0a0"/>
    <rect id="_x32_4" x="1057.83" y="727.72" width="37.4" height="14.64" transform="translate(364.93 -357.13) rotate(22.59)" fill="#a0a0a0"/>
    <rect id="_x32_9" x="1087.36" y="853.78" width="37.4" height="14.64" transform="translate(1480.45 -489.71) rotate(67.59)" fill="#a0a0a0"/>
    <rect id="_x33_0" x="1109.1" y="844.93" width="37.4" height="14.64" transform="translate(1485.72 -515.29) rotate(67.59)" fill="#a0a0a0"/>
    <rect id="_x33_1" x="1130.84" y="836.08" width="37.4" height="14.64" transform="translate(1490.98 -540.86) rotate(67.59)" fill="#a0a0a0"/>
    <rect id="_x33_2" x="1153.29" y="827.23" width="37.4" height="14.64" transform="translate(1496.69 -567.09) rotate(67.59)" fill="#a0a0a0"/>
    <rect id="_x33_3" x="1175.03" y="818.38" width="37.4" height="14.64" transform="translate(1501.96 -592.66) rotate(67.59)" fill="#a0a0a0"/>
    <rect id="_x31_4" x="990.86" y="458.26" width="37.4" height="14.64" transform="translate(256.29 -352.07) rotate(22.59)" fill="#a0a0a0"/>
    <rect id="_x31_3" x="999.44" y="437.65" width="37.4" height="14.64" transform="translate(249.03 -356.95) rotate(22.59)" fill="#a0a0a0"/>
    <rect id="_x31_2" x="1007.79" y="417.58" width="37.4" height="14.64" transform="translate(241.96 -361.7) rotate(22.59)" fill="#a0a0a0"/>
    <rect id="_x31_0" x="917.27" y="426.42" width="37.4" height="14.64" transform="translate(980.32 -596.89) rotate(67.6)" fill="#a0a0a0"/>
    <rect id="_x31_1" x="938.74" y="417.58" width="37.4" height="14.64" transform="translate(985.42 -622.21) rotate(67.6)" fill="#a0a0a0"/>
  </g>
</svg>